<mxfile host="app.diagrams.net" modified="2022-01-12T09:28:10.206Z" agent="5.0 (Windows NT 10.0; Win64; x64) AppleWebKit/537.36 (KHTML, like Gecko) Chrome/97.0.4692.71 Safari/537.36" etag="5JVC2WTpU30nsU_oPPE6" version="16.2.4" type="github">
  <diagram id="shIH6tXAbxEEqAA__oOA" name="Page-1">
    <mxGraphModel dx="1422" dy="762" grid="1" gridSize="10" guides="1" tooltips="1" connect="1" arrows="1" fold="1" page="1" pageScale="1" pageWidth="827" pageHeight="1169" math="0" shadow="0">
      <root>
        <mxCell id="0" />
        <mxCell id="1" parent="0" />
        <mxCell id="Ro8KQqKJ3IIFbxe3qDTS-1" value="" style="rounded=1;whiteSpace=wrap;html=1;" vertex="1" parent="1">
          <mxGeometry x="70" y="100" width="120" height="60" as="geometry" />
        </mxCell>
        <mxCell id="Ro8KQqKJ3IIFbxe3qDTS-2" value="" style="endArrow=classic;html=1;rounded=0;" edge="1" parent="1">
          <mxGeometry relative="1" as="geometry">
            <mxPoint x="360" y="390" as="sourcePoint" />
            <mxPoint x="460" y="390" as="targetPoint" />
          </mxGeometry>
        </mxCell>
        <mxCell id="Ro8KQqKJ3IIFbxe3qDTS-3" value="Label" style="edgeLabel;resizable=0;html=1;align=center;verticalAlign=middle;" connectable="0" vertex="1" parent="Ro8KQqKJ3IIFbxe3qDTS-2">
          <mxGeometry relative="1" as="geometry">
            <mxPoint x="-160" y="-300" as="offset" />
          </mxGeometry>
        </mxCell>
      </root>
    </mxGraphModel>
  </diagram>
</mxfile>
